<?xml version="1.0" encoding="UTF-8"?>
<svg width="202px" height="109px" viewBox="0 0 202 109" version="1.1" xmlns="http://www.w3.org/2000/svg" xmlns:xlink="http://www.w3.org/1999/xlink">
    <!-- Generator: Sketch 52 (66869) - http://www.bohemiancoding.com/sketch -->
    <title>КП</title>
    <desc>Created with Sketch.</desc>
    <g id="Page-1" stroke="none" stroke-width="1" fill="none" fill-rule="evenodd">
        <g id="Apple-TV-Copy" transform="translate(-429.000000, -141.000000)" fill="#FEFEFE">
            <path d="M491.298126,191.61305 C501.433327,207.491733 513.000503,223.976647 526,241.068285 L525.504259,244.707132 C513.93691,247.243311 502.920552,249.007582 492.454855,250 L488.819421,248.015175 C477.582567,228.718164 468.383909,212.343517 461.223169,198.890744 L460.892675,213.280728 L462.214651,248.015175 L429,248.015175 L430.65247,216.588771 L429,141 L462.710392,141 L461.553663,185.658574 L482.044293,152.578149 L487.662692,141 L522.69506,141 L491.298126,191.61305 Z M629.198944,213.270479 L630.508803,248 L597.598592,248 L599.235915,216.578053 L598.089789,166.137558 L570.746479,166.137558 L569.600352,213.270479 L570.910211,248 L538,248 L539.637324,216.578053 L538,141 L631,141 L629.198944,213.270479 Z" id="КП"></path>
        </g>
    </g>
</svg>