<?xml version="1.0" encoding="UTF-8"?>
<svg width="1918px" height="395px" viewBox="0 0 1918 395" version="1.1" xmlns="http://www.w3.org/2000/svg" xmlns:xlink="http://www.w3.org/1999/xlink">
    <!-- Generator: Sketch 52 (66869) - http://www.bohemiancoding.com/sketch -->
    <title>chart</title>
    <desc>Created with Sketch.</desc>
    <defs>
        <path d="M8.51763104e-13,292.745006 C50.8303887,314.515307 139.501178,324.496568 266.012367,322.688787 C455.779152,319.977117 487.971731,282.01373 764.150177,302.351259 C1040.32862,322.688787 1323.28445,299.639588 1535.07774,252.6373 C1676.27326,221.302441 1803.91402,137.090008 1918,0 L1918,395 L0,395 L8.51763104e-13,292.745006 Z" id="path-1"></path>
    </defs>
    <g id="Page-1" stroke="none" stroke-width="1" fill="none" fill-rule="evenodd">
        <g id="Apple-TV-Copy" transform="translate(-2.000000, -2183.000000)">
            <g id="chart" transform="translate(2.000000, 2183.000000)">
                <g id="до-после">
                    <mask id="mask-2" fill="white">
                        <use xlink:href="#path-1"></use>
                    </mask>
                    <g id="Mask" fill-rule="nonzero"></g>
                    <g mask="url(#mask-2)" fill-rule="nonzero">
                        <rect id="Rectangle-Copy-3" fill="#FF4774" x="0" y="0" width="11.4297099" height="395"></rect>
                        <rect id="Rectangle-Copy-5" fill="#FF4774" x="13.9043143" y="0" width="11.4297099" height="395"></rect>
                        <rect id="Rectangle-Copy-4" fill="#FF4774" x="27.8086286" y="0" width="11.4297099" height="395"></rect>
                        <rect id="Rectangle-Copy-7" fill="#FF4774" x="41.712943" y="0" width="11.4297099" height="395"></rect>
                        <rect id="Rectangle-Copy-6" fill="#FF4774" x="55.6172573" y="0" width="11.4297099" height="395"></rect>
                        <rect id="Rectangle-Copy-9" fill="#FF4774" x="69.5215716" y="0" width="11.4297099" height="395"></rect>
                        <rect id="Rectangle-Copy-8" fill="#FF4774" x="83.4258859" y="0" width="11.4297099" height="395"></rect>
                        <rect id="Rectangle-Copy-11" fill="#FF4774" x="97.3302002" y="0" width="11.4297099" height="395"></rect>
                        <rect id="Rectangle-Copy-10" fill="#FF4774" x="111.234515" y="0" width="11.4297099" height="395"></rect>
                        <rect id="Rectangle-Copy-13" fill="#FF4774" x="125.138829" y="0" width="11.4297099" height="395"></rect>
                        <rect id="Rectangle-Copy-12" fill="#FF4774" x="139.043143" y="0" width="11.4297099" height="395"></rect>
                        <rect id="Rectangle-Copy-15" fill="#FF4774" x="152.947458" y="0" width="11.4297099" height="395"></rect>
                        <rect id="Rectangle-Copy-14" fill="#FF4774" x="166.851772" y="0" width="11.4297099" height="395"></rect>
                        <rect id="Rectangle-Copy-17" fill="#FF4774" x="180.756086" y="0" width="11.4297099" height="395"></rect>
                        <rect id="Rectangle-Copy-16" fill="#FF4774" x="194.6604" y="0" width="11.4297099" height="395"></rect>
                        <rect id="Rectangle-Copy-19" fill="#FF4774" x="208.564715" y="0" width="11.4297099" height="395"></rect>
                        <rect id="Rectangle-Copy-18" fill="#FF4774" x="222.469029" y="0" width="11.4297099" height="395"></rect>
                        <rect id="Rectangle-Copy-21" fill="#FF4774" x="236.373343" y="0" width="11.4297099" height="395"></rect>
                        <rect id="Rectangle-Copy-20" fill="#FF4774" x="250.277658" y="0" width="11.4297099" height="395"></rect>
                        <rect id="Rectangle-Copy-23" fill="#FF4774" x="264.181972" y="0" width="11.4297099" height="395"></rect>
                        <rect id="Rectangle-Copy-22" fill="#FF4774" x="278.086286" y="0" width="11.4297099" height="395"></rect>
                        <rect id="Rectangle-Copy-25" fill="#FF4774" x="291.990601" y="0" width="11.4297099" height="395"></rect>
                        <rect id="Rectangle-Copy-24" fill="#FF4774" x="305.894915" y="0" width="11.4297099" height="395"></rect>
                        <rect id="Rectangle-Copy-27" fill="#FF4774" x="319.799229" y="0" width="11.4297099" height="395"></rect>
                        <rect id="Rectangle-Copy-26" fill="#FF4774" x="333.703544" y="0" width="11.4297099" height="395"></rect>
                        <rect id="Rectangle-Copy-29" fill="#FF4774" x="347.607858" y="0" width="11.4297099" height="395"></rect>
                        <rect id="Rectangle-Copy-28" fill="#FF4774" x="361.512172" y="0" width="11.4297099" height="395"></rect>
                        <rect id="Rectangle-Copy-31" fill="#FF4774" x="375.416487" y="0" width="11.4297099" height="395"></rect>
                        <rect id="Rectangle-Copy-30" fill="#FF4774" x="389.320801" y="0" width="11.4297099" height="395"></rect>
                        <rect id="Rectangle-Copy-33" fill="#FF4774" x="403.225115" y="0" width="11.4297099" height="395"></rect>
                        <rect id="Rectangle-Copy-32" fill="#FF4774" x="417.12943" y="0" width="11.4297099" height="395"></rect>
                        <rect id="Rectangle-Copy-35" fill="#FF4774" x="431.033744" y="0" width="11.4297099" height="395"></rect>
                        <rect id="Rectangle-Copy-34" fill="#FF4774" x="444.938058" y="0" width="11.4297099" height="395"></rect>
                        <rect id="Rectangle" fill="#FF4774" x="458.842373" y="0" width="11.4297099" height="395"></rect>
                        <rect id="Rectangle-Copy-2" fill="#FF4774" x="486.651001" y="0" width="11.4297099" height="395"></rect>
                        <rect id="Rectangle-Copy" fill="#FF4774" x="472.746687" y="0" width="11.4297099" height="395"></rect>
                        <rect id="Rectangle-Copy-3" fill="#FF4774" x="500.555316" y="0" width="11.4297099" height="395"></rect>
                        <rect id="Rectangle-Copy-5" fill="#FF4774" x="514.45963" y="0" width="11.4297099" height="395"></rect>
                        <rect id="Rectangle-Copy-4" fill="#FF4774" x="528.363944" y="0" width="11.4297099" height="395"></rect>
                        <rect id="Rectangle-Copy-7" fill="#FF4774" x="542.268258" y="0" width="11.4297099" height="395"></rect>
                        <rect id="Rectangle-Copy-6" fill="#FF4774" x="556.172573" y="0" width="11.4297099" height="395"></rect>
                        <rect id="Rectangle-Copy-9" fill="#FF4774" x="570.076887" y="0" width="11.4297099" height="395"></rect>
                        <rect id="Rectangle-Copy-8" fill="#FF4774" x="583.981201" y="0" width="11.4297099" height="395"></rect>
                        <rect id="Rectangle-Copy-11" fill="#FF4774" x="597.885516" y="0" width="11.4297099" height="395"></rect>
                        <rect id="Rectangle-Copy-10" fill="#FF4774" x="611.78983" y="0" width="11.4297099" height="395"></rect>
                        <rect id="Rectangle-Copy-13" fill="#FF4774" x="625.694144" y="0" width="11.4297099" height="395"></rect>
                        <rect id="Rectangle-Copy-12" fill="#FF4774" x="639.598459" y="0" width="11.4297099" height="395"></rect>
                        <rect id="Rectangle-Copy-15" fill="#FF4774" x="653.502773" y="0" width="11.4297099" height="395"></rect>
                        <rect id="Rectangle-Copy-14" fill="#FF4774" x="667.407087" y="0" width="11.4297099" height="395"></rect>
                        <rect id="Rectangle-Copy-17" fill="#FF4774" x="681.311402" y="0" width="11.4297099" height="395"></rect>
                        <rect id="Rectangle-Copy-16" fill="#FF4774" x="695.215716" y="0" width="11.4297099" height="395"></rect>
                        <rect id="Rectangle-Copy-19" fill="#FF4774" x="709.12003" y="0" width="11.4297099" height="395"></rect>
                        <rect id="Rectangle-Copy-18" fill="#FF4774" x="723.024345" y="0" width="11.4297099" height="395"></rect>
                        <rect id="Rectangle-Copy-21" fill="#FF4774" x="736.928659" y="0" width="11.4297099" height="395"></rect>
                        <rect id="Rectangle-Copy-20" fill="#FF4774" x="750.832973" y="0" width="11.4297099" height="395"></rect>
                        <rect id="Rectangle-Copy-23" fill="#FF4774" x="764.737288" y="0" width="11.4297099" height="395"></rect>
                        <rect id="Rectangle-Copy-22" fill="#FF4774" x="778.641602" y="0" width="11.4297099" height="395"></rect>
                        <rect id="Rectangle-Copy-25" fill="#FF4774" x="792.545916" y="0" width="11.4297099" height="395"></rect>
                        <rect id="Rectangle-Copy-24" fill="#FF4774" x="806.450231" y="0" width="11.4297099" height="395"></rect>
                        <rect id="Rectangle-Copy-27" fill="#FF4774" x="820.354545" y="0" width="11.4297099" height="395"></rect>
                        <rect id="Rectangle-Copy-26" fill="#FF4774" x="834.258859" y="0" width="11.4297099" height="395"></rect>
                        <rect id="Rectangle-Copy-29" fill="#FF4774" x="848.163173" y="0" width="11.4297099" height="395"></rect>
                        <rect id="Rectangle-Copy-28" fill="#FF4774" x="862.067488" y="0" width="11.4297099" height="395"></rect>
                        <rect id="Rectangle-Copy-31" fill="#FF4774" x="875.971802" y="0" width="11.4297099" height="395"></rect>
                        <rect id="Rectangle-Copy-30" fill="#FF4774" x="889.876116" y="0" width="11.4297099" height="395"></rect>
                        <rect id="Rectangle-Copy-33" fill="#FF4774" x="903.780431" y="0" width="11.4297099" height="395"></rect>
                        <rect id="Rectangle-Copy-32" fill="#FF4774" x="917.684745" y="0" width="11.4297099" height="395"></rect>
                        <rect id="Rectangle-Copy-35" fill="#FF4774" x="931.589059" y="0" width="11.4297099" height="395"></rect>
                        <rect id="Rectangle-Copy-34" fill="#FF4774" x="945.493374" y="0" width="11.4297099" height="395"></rect>
                        <rect id="Rectangle" fill="#2D9DD5" x="959.397688" y="0" width="11.4630485" height="395"></rect>
                        <rect id="Rectangle-Copy-2" fill="#2D9DD5" x="987.272994" y="0" width="11.4630485" height="395"></rect>
                        <rect id="Rectangle-Copy" fill="#2D9DD5" x="973.335341" y="0" width="11.4630485" height="395"></rect>
                        <rect id="Rectangle-Copy-3" fill="#2D9DD5" x="1001.21065" y="0" width="11.4630485" height="395"></rect>
                        <rect id="Rectangle-Copy-5" fill="#2D9DD5" x="1015.1483" y="0" width="11.4630485" height="395"></rect>
                        <rect id="Rectangle-Copy-4" fill="#2D9DD5" x="1029.08595" y="0" width="11.4630485" height="395"></rect>
                        <rect id="Rectangle-Copy-7" fill="#2D9DD5" x="1043.02361" y="0" width="11.4630485" height="395"></rect>
                        <rect id="Rectangle-Copy-6" fill="#2D9DD5" x="1056.96126" y="0" width="11.4630485" height="395"></rect>
                        <rect id="Rectangle-Copy-9" fill="#2D9DD5" x="1070.89891" y="0" width="11.4630485" height="395"></rect>
                        <rect id="Rectangle-Copy-8" fill="#2D9DD5" x="1084.83656" y="0" width="11.4630485" height="395"></rect>
                        <rect id="Rectangle-Copy-11" fill="#2D9DD5" x="1098.77422" y="0" width="11.4630485" height="395"></rect>
                        <rect id="Rectangle-Copy-10" fill="#2D9DD5" x="1112.71187" y="0" width="11.4630485" height="395"></rect>
                        <rect id="Rectangle-Copy-13" fill="#2D9DD5" x="1126.64952" y="0" width="11.4630485" height="395"></rect>
                        <rect id="Rectangle-Copy-12" fill="#2D9DD5" x="1140.58717" y="0" width="11.4630485" height="395"></rect>
                        <rect id="Rectangle-Copy-15" fill="#2D9DD5" x="1154.52483" y="0" width="11.4630485" height="395"></rect>
                        <rect id="Rectangle-Copy-14" fill="#2D9DD5" x="1168.46248" y="0" width="11.4630485" height="395"></rect>
                        <rect id="Rectangle-Copy-17" fill="#2D9DD5" x="1182.40013" y="0" width="11.4630485" height="395"></rect>
                        <rect id="Rectangle-Copy-16" fill="#2D9DD5" x="1196.33779" y="0" width="11.4630485" height="395"></rect>
                        <rect id="Rectangle-Copy-19" fill="#2D9DD5" x="1210.27544" y="0" width="11.4630485" height="395"></rect>
                        <rect id="Rectangle-Copy-18" fill="#2D9DD5" x="1224.21309" y="0" width="11.4630485" height="395"></rect>
                        <rect id="Rectangle-Copy-21" fill="#2D9DD5" x="1238.15074" y="0" width="11.4630485" height="395"></rect>
                        <rect id="Rectangle-Copy-20" fill="#2D9DD5" x="1252.0884" y="0" width="11.4630485" height="395"></rect>
                        <rect id="Rectangle-Copy-23" fill="#2D9DD5" x="1266.02605" y="0" width="11.4630485" height="395"></rect>
                        <rect id="Rectangle-Copy-22" fill="#2D9DD5" x="1279.9637" y="0" width="11.4630485" height="395"></rect>
                        <rect id="Rectangle-Copy-25" fill="#2D9DD5" x="1293.90136" y="0" width="11.4630485" height="395"></rect>
                        <rect id="Rectangle-Copy-24" fill="#2D9DD5" x="1307.83901" y="0" width="11.4630485" height="395"></rect>
                        <rect id="Rectangle-Copy-27" fill="#2D9DD5" x="1321.77666" y="0" width="11.4630485" height="395"></rect>
                        <rect id="Rectangle-Copy-26" fill="#2D9DD5" x="1335.71431" y="0" width="11.4630485" height="395"></rect>
                        <rect id="Rectangle-Copy-29" fill="#2D9DD5" x="1349.65197" y="0" width="11.4630485" height="395"></rect>
                        <rect id="Rectangle-Copy-28" fill="#2D9DD5" x="1363.58962" y="0" width="11.4630485" height="395"></rect>
                        <rect id="Rectangle-Copy-31" fill="#2D9DD5" x="1377.52727" y="0" width="11.4630485" height="395"></rect>
                        <rect id="Rectangle-Copy-30" fill="#2D9DD5" x="1391.46493" y="0" width="11.4630485" height="395"></rect>
                        <rect id="Rectangle-Copy-33" fill="#2D9DD5" x="1405.40258" y="0" width="11.4630485" height="395"></rect>
                        <rect id="Rectangle-Copy-32" fill="#2D9DD5" x="1419.34023" y="0" width="11.4630485" height="395"></rect>
                        <rect id="Rectangle-Copy-35" fill="#2D9DD5" x="1433.27788" y="0" width="11.4630485" height="395"></rect>
                        <rect id="Rectangle-Copy-34" fill="#2D9DD5" x="1447.21554" y="0" width="11.4630485" height="395"></rect>
                        <rect id="Rectangle" fill="#2D9DD5" x="1461.15319" y="0" width="11.4630485" height="395"></rect>
                        <rect id="Rectangle-Copy-2" fill="#2D9DD5" x="1489.0285" y="0" width="11.4630485" height="395"></rect>
                        <rect id="Rectangle-Copy" fill="#2D9DD5" x="1475.09084" y="0" width="11.4630485" height="395"></rect>
                        <rect id="Rectangle-Copy-3" fill="#2D9DD5" x="1502.96615" y="0" width="11.4630485" height="395"></rect>
                        <rect id="Rectangle-Copy-5" fill="#2D9DD5" x="1516.9038" y="0" width="11.4630485" height="395"></rect>
                        <rect id="Rectangle-Copy-4" fill="#2D9DD5" x="1530.84145" y="0" width="11.4630485" height="395"></rect>
                        <rect id="Rectangle-Copy-7" fill="#2D9DD5" x="1544.77911" y="0" width="11.4630485" height="395"></rect>
                        <rect id="Rectangle-Copy-6" fill="#2D9DD5" x="1558.71676" y="0" width="11.4630485" height="395"></rect>
                        <rect id="Rectangle-Copy-9" fill="#2D9DD5" x="1572.65441" y="0" width="11.4630485" height="395"></rect>
                        <rect id="Rectangle-Copy-8" fill="#2D9DD5" x="1586.59207" y="0" width="11.4630485" height="395"></rect>
                        <rect id="Rectangle-Copy-11" fill="#2D9DD5" x="1600.52972" y="0" width="11.4630485" height="395"></rect>
                        <rect id="Rectangle-Copy-10" fill="#2D9DD5" x="1614.46737" y="0" width="11.4630485" height="395"></rect>
                        <rect id="Rectangle-Copy-13" fill="#2D9DD5" x="1628.40502" y="0" width="11.4630485" height="395"></rect>
                        <rect id="Rectangle-Copy-12" fill="#2D9DD5" x="1642.34268" y="0" width="11.4630485" height="395"></rect>
                        <rect id="Rectangle-Copy-15" fill="#2D9DD5" x="1656.28033" y="0" width="11.4630485" height="395"></rect>
                        <rect id="Rectangle-Copy-14" fill="#2D9DD5" x="1670.21798" y="0" width="11.4630485" height="395"></rect>
                        <rect id="Rectangle-Copy-17" fill="#2D9DD5" x="1684.15564" y="0" width="11.4630485" height="395"></rect>
                        <rect id="Rectangle-Copy-16" fill="#2D9DD5" x="1698.09329" y="0" width="11.4630485" height="395"></rect>
                        <rect id="Rectangle-Copy-19" fill="#2D9DD5" x="1712.03094" y="0" width="11.4630485" height="395"></rect>
                        <rect id="Rectangle-Copy-18" fill="#2D9DD5" x="1725.96859" y="0" width="11.4630485" height="395"></rect>
                        <rect id="Rectangle-Copy-21" fill="#2D9DD5" x="1739.90625" y="0" width="11.4630485" height="395"></rect>
                        <rect id="Rectangle-Copy-20" fill="#2D9DD5" x="1753.8439" y="0" width="11.4630485" height="395"></rect>
                        <rect id="Rectangle-Copy-23" fill="#2D9DD5" x="1767.78155" y="0" width="11.4630485" height="395"></rect>
                        <rect id="Rectangle-Copy-22" fill="#2D9DD5" x="1781.71921" y="0" width="11.4630485" height="395"></rect>
                        <rect id="Rectangle-Copy-25" fill="#2D9DD5" x="1795.65686" y="0" width="11.4630485" height="395"></rect>
                        <rect id="Rectangle-Copy-24" fill="#2D9DD5" x="1809.59451" y="0" width="11.4630485" height="395"></rect>
                        <rect id="Rectangle-Copy-27" fill="#2D9DD5" x="1823.53216" y="0" width="11.4630485" height="395"></rect>
                        <rect id="Rectangle-Copy-26" fill="#2D9DD5" x="1837.46982" y="0" width="11.4630485" height="395"></rect>
                        <rect id="Rectangle-Copy-29" fill="#2D9DD5" x="1851.40747" y="0" width="11.4630485" height="395"></rect>
                        <rect id="Rectangle-Copy-28" fill="#2D9DD5" x="1865.34512" y="0" width="11.4630485" height="395"></rect>
                        <rect id="Rectangle-Copy-31" fill="#2D9DD5" x="1879.28278" y="0" width="11.4630485" height="395"></rect>
                        <rect id="Rectangle-Copy-30" fill="#2D9DD5" x="1893.22043" y="0" width="11.4630485" height="395"></rect>
                        <rect id="Rectangle-Copy-33" fill="#2D9DD5" x="1907.15808" y="0" width="11.4630485" height="395"></rect>
                    </g>
                </g>
            </g>
        </g>
    </g>
</svg>