<svg xmlns="http://www.w3.org/2000/svg" viewBox="0 0 408 62"><defs><style>.cls-1,.cls-2{fill:#fff;}.cls-1{fill-rule:evenodd;}</style></defs><title>logo-go</title><g id="Слой_2" data-name="Слой 2"><g id="Слой_1-2" data-name="Слой 1"><g id="Page-1"><g id="Apple-TV-Copy"><g id="logo"><path id="Good-Offer" class="cls-1" d="M336.15,25.75q-5.62,0-9.23,6.72h-.54V25.68l-11.62.9.54,20.17-.62,14.42h12.16l-.54-15.63V41.08q3.46-4.38,7.62-4.38a6.48,6.48,0,0,1,2.84.53l1.24-.37v-11C337.07,25.8,336.46,25.75,336.15,25.75ZM308.3,44a25.15,25.15,0,0,0,.46-4.6q0-6.72-4-10.5t-11.12-3.78q-8.31,0-13.16,4.95t-4.85,13.56q0,8.61,5,13.52T294.6,62a38.36,38.36,0,0,0,11.16-1.88l1.84-8.54-.92-.6a34.61,34.61,0,0,1-10.77,2.34,9.49,9.49,0,0,1-6.31-1.89,8.87,8.87,0,0,1-2.77-5.81L307,45.46Zm-10.24-4.83-11.08.3a9.19,9.19,0,0,1,2.31-4.87,5.85,5.85,0,0,1,4.31-1.7q4.62,0,4.62,5.21ZM272.06,8q-8.16,0-12.66,3.89T254.9,23l.08,3.17h4l.31.68-.54,6.42h-3.7l.16,13.44-.62,14.5h12.16l-.54-15.63.15-12.31h8.47l.54-6.42-.31-.68h-8.54l.08-5.29q.07-4.45,4.23-4.45a19.14,19.14,0,0,1,6.69,1.66l.77-.6.77-8.77A39,39,0,0,0,272.06,8ZM246,9.06q-8.08,0-12.43,3.85T229.2,24v2.11h-5l-.54,6.5.31.6h5.39l.23,13.44L229,61.17h12.16l-.54-15.63.23-12.31h8.39l.55-6.42-.38-.68H240.9l.07-4.3a5.45,5.45,0,0,1,1-3.44,3.65,3.65,0,0,1,2.89-1.1,18.39,18.39,0,0,1,5.92,1.36l.77-.52.69-8.39A30,30,0,0,0,246,9.06Zm-31.55,8.88Q208.66,11.7,198,11.71q-11.46,0-17.73,6.72T174,37.53q0,11.72,5.77,18.09T196.12,62q11.46,0,17.77-6.91t6.31-19.44Q220.2,24.16,214.43,17.94Zm-8.27,29A7.91,7.91,0,0,1,203,51.47a10.64,10.64,0,0,1-5.85,1.4,10,10,0,0,1-6-1.59A9.22,9.22,0,0,1,188,46,39.79,39.79,0,0,1,187,36a28.81,28.81,0,0,1,1-8.5,8.09,8.09,0,0,1,3.15-4.53,10.51,10.51,0,0,1,5.77-1.4,10.18,10.18,0,0,1,6,1.55,9.11,9.11,0,0,1,3.15,5.18,38.91,38.91,0,0,1,1,10A31.15,31.15,0,0,1,206.16,46.9Zm-47.13,6a6,6,0,0,1-1.69.3,1.23,1.23,0,0,1-1.08-.45,3.07,3.07,0,0,1-.31-1.59l-.15-5.59.62-37.38L144.34,9l.15,16.61a20.51,20.51,0,0,0-4.08-.38q-8.61,0-13.5,4.8T122,43.88q0,8.38,4.16,13.14t11.62,4.76a28.51,28.51,0,0,0,7.46-5.21h.62a7.53,7.53,0,0,0,2.5,3.7,7.8,7.8,0,0,0,4.19,1.58,12.62,12.62,0,0,0,6.23-2l1.08-6.26Zm-14.31-2.65a7.26,7.26,0,0,1-5.15,2.5A5,5,0,0,1,135,50q-1.55-2.73-1.54-8.46,0-4.45,1.62-6.38a5.93,5.93,0,0,1,4.84-1.93,11.81,11.81,0,0,1,4.77,1.13l.16,12.31ZM114.21,29.6q-4.26-4.53-12.42-4.53-8.7,0-13.27,4.95T83.94,44.33q0,8.61,4.27,13.14T100.63,62q8.7,0,13.28-4.9t4.57-14.28Q118.48,34.14,114.21,29.6Zm-8.46,22.55a4.67,4.67,0,0,1-4.27,2,5.59,5.59,0,0,1-3.65-1.09,6.43,6.43,0,0,1-1.93-3.71,35.43,35.43,0,0,1-.57-7.21q0-5,1.26-7a4.75,4.75,0,0,1,4.35-2,4.85,4.85,0,0,1,4.73,2.61Q107,38.37,107,45.09,107,50.15,105.75,52.15ZM76.13,29.6q-4.27-4.53-12.43-4.53Q55,25.07,50.43,30T45.85,44.33q0,8.61,4.27,13.14T62.55,62q8.69,0,13.27-4.9T80.4,42.82Q80.4,34.14,76.13,29.6ZM67.67,52.15a4.68,4.68,0,0,1-4.28,2,5.63,5.63,0,0,1-3.65-1.09,6.37,6.37,0,0,1-1.92-3.71,34.6,34.6,0,0,1-.58-7.21q0-5,1.27-7c.85-1.34,2.29-2,4.35-2a4.87,4.87,0,0,1,4.73,2.61c.9,1.74,1.34,4.85,1.34,9.33Q68.93,50.15,67.67,52.15ZM29.54,40.4l.23,7.93-.07,3.4a19.63,19.63,0,0,1-5,.76,13.81,13.81,0,0,1-6.88-1.44,8.34,8.34,0,0,1-3.66-4.72A28.45,28.45,0,0,1,13,37.23a29.19,29.19,0,0,1,1.19-9.29,8.78,8.78,0,0,1,3.66-4.87,12.82,12.82,0,0,1,6.61-1.47,22.09,22.09,0,0,1,6.27.87,35.64,35.64,0,0,1,6.74,2.91h1.07l2.62-11a35.93,35.93,0,0,0-14.39-2.64q-12.93,0-19.85,6.68T0,37.84Q0,49.47,5.92,55.7t17.7,6.23a53.12,53.12,0,0,0,17.31-3.17L40.85,46.3,41,39.57Z"/><path id="Shape" class="cls-2" d="M366.34,0c-2.55,0-6.65,2-6.65,4.4L354,44l12.34-8.8L400.4,35a4.53,4.53,0,0,0,4.63-4.4L408,4.4A4.54,4.54,0,0,0,403.37,0Z"/></g></g></g></g></g></svg>