<?xml version="1.0" encoding="UTF-8"?>
<svg width="52px" height="40px" viewBox="0 0 52 40" version="1.1" xmlns="http://www.w3.org/2000/svg" xmlns:xlink="http://www.w3.org/1999/xlink">
    <!-- Generator: Sketch 52 (66869) - http://www.bohemiancoding.com/sketch -->
    <title>Shape</title>
    <desc>Created with Sketch.</desc>
    <g id="Page-1" stroke="none" stroke-width="1" fill="none" fill-rule="evenodd">
        <g id="Apple-TV-Copy" transform="translate(-431.000000, -2748.000000)" fill="#EAEAEA" fill-rule="nonzero">
            <g id="Group" transform="translate(-19.000000, 2581.000000)">
                <g id="footer-copy" transform="translate(19.000000, 143.000000)">
                    <path d="M474.036227,57.6875 C474.036227,58.2946429 473.626273,58.7321429 473.038079,58.7321429 C472.43206,58.7321429 472.039931,58.2678571 472.039931,57.6875 C472.039931,57.1071429 472.43206,56.6428571 473.038079,56.6428571 C473.626273,56.6428571 474.036227,57.1071429 474.036227,57.6875 Z M446.337616,56.6428571 C445.704861,56.6428571 445.339468,57.1071429 445.339468,57.6875 C445.339468,58.2678571 445.704861,58.7321429 446.337616,58.7321429 C446.916898,58.7321429 447.309028,58.2946429 447.309028,57.6875 C447.300116,57.1071429 446.916898,56.6428571 446.337616,56.6428571 Z M456.809259,56.6160714 C456.328009,56.6160714 456.033912,56.9285714 455.962616,57.3928571 L457.664815,57.3928571 C457.584606,56.8839286 457.272685,56.6160714 456.809259,56.6160714 Z M466.416435,56.6428571 C465.810417,56.6428571 465.445023,57.1071429 465.445023,57.6875 C465.445023,58.2678571 465.810417,58.7321429 466.416435,58.7321429 C467.022454,58.7321429 467.414583,58.2946429 467.414583,57.6875 C467.414583,57.1071429 467.022454,56.6428571 466.416435,56.6428571 Z M475.854282,58.9732143 C475.854282,59 475.881019,59.0178571 475.881019,59.0714286 C475.881019,59.0982143 475.854282,59.1160714 475.854282,59.1696429 C475.827546,59.1964286 475.827546,59.2142857 475.809722,59.2410714 C475.782986,59.2678571 475.765162,59.2857143 475.71169,59.2857143 C475.684954,59.3125 475.66713,59.3125 475.613657,59.3125 C475.586921,59.3125 475.569097,59.3125 475.515625,59.2857143 C475.488889,59.2857143 475.471065,59.2589286 475.444329,59.2410714 C475.417593,59.2142857 475.399769,59.1964286 475.399769,59.1696429 C475.373032,59.125 475.373032,59.0982143 475.373032,59.0714286 C475.373032,59.0267857 475.373032,59 475.399769,58.9732143 C475.399769,58.9285714 475.426505,58.9017857 475.444329,58.875 C475.471065,58.8482143 475.488889,58.8482143 475.515625,58.8303571 C475.560185,58.8035714 475.586921,58.8035714 475.613657,58.8035714 C475.658218,58.8035714 475.684954,58.8035714 475.71169,58.8303571 C475.75625,58.8571429 475.782986,58.8571429 475.809722,58.875 C475.836458,58.8928571 475.827546,58.9285714 475.854282,58.9732143 Z M475.658218,59.0982143 C475.702778,59.0982143 475.702778,59.0714286 475.729514,59.0714286 C475.75625,59.0446429 475.75625,59.0267857 475.75625,59 C475.75625,58.9732143 475.75625,58.9553571 475.729514,58.9285714 C475.702778,58.9285714 475.684954,58.9017857 475.631481,58.9017857 L475.488889,58.9017857 L475.488889,59.2142857 L475.560185,59.2142857 L475.560185,59.0892857 L475.586921,59.0892857 L475.684954,59.2142857 L475.75625,59.2142857 L475.658218,59.0982143 Z M482.333333,28.2857143 L482.333333,59.7142857 C482.333333,62.0803571 480.417245,64 478.055556,64 L435.277778,64 C432.916088,64 431,62.0803571 431,59.7142857 L431,28.2857143 C431,25.9196429 432.916088,24 435.277778,24 L478.055556,24 C480.417245,24 482.333333,25.9196429 482.333333,28.2857143 Z M436.703704,40.75 C436.703704,47.5803571 442.238079,53.1160714 449.046875,53.1160714 C451.470949,53.1160714 453.850463,52.3839286 455.864583,51.0535714 C449.367708,45.7589286 449.412269,35.7678571 455.864583,30.4732143 C453.850463,29.1339286 451.470949,28.4107143 449.046875,28.4107143 C442.238079,28.4017857 436.703704,33.9464286 436.703704,40.75 Z M456.666667,50.4642857 C462.949653,45.5535714 462.922917,35.9821429 456.666667,31.0446429 C450.410417,35.9821429 450.383681,45.5625 456.666667,50.4642857 Z M443.984838,57.2767857 C443.984838,56.5 443.476852,55.9910714 442.674769,55.9642857 C442.264815,55.9642857 441.828125,56.0892857 441.534028,56.5446429 C441.320139,56.1785714 440.954745,55.9642857 440.446759,55.9642857 C440.108102,55.9642857 439.769444,56.0892857 439.502083,56.4464286 L439.502083,56.0535714 L438.771296,56.0535714 L438.771296,59.3303571 L439.502083,59.3303571 C439.502083,57.6428571 439.279282,56.6339286 440.304167,56.6339286 C441.213194,56.6339286 441.034954,57.5446429 441.034954,59.3303571 L441.739005,59.3303571 C441.739005,57.6964286 441.516204,56.6339286 442.541088,56.6339286 C443.450116,56.6339286 443.271875,57.5267857 443.271875,59.3303571 L444.002662,59.3303571 L444.002662,57.2767857 L443.984838,57.2767857 Z M447.986343,56.0535714 L447.282292,56.0535714 L447.282292,56.4464286 C447.041667,56.1517857 446.703009,55.9642857 446.239583,55.9642857 C445.321644,55.9642857 444.617593,56.6964286 444.617593,57.6875 C444.617593,58.6875 445.321644,59.4107143 446.239583,59.4107143 C446.703009,59.4107143 447.041667,59.2410714 447.282292,58.9285714 L447.282292,59.3392857 L447.986343,59.3392857 L447.986343,56.0535714 Z M451.595718,58.3392857 C451.595718,57 449.554861,57.6071429 449.554861,56.9821429 C449.554861,56.4732143 450.615394,56.5535714 451.203588,56.8839286 L451.497685,56.3035714 C450.659954,55.7589286 448.80625,55.7678571 448.80625,57.0357143 C448.80625,58.3125 450.847106,57.7767857 450.847106,58.375 C450.847106,58.9375 449.643981,58.8928571 449.002315,58.4464286 L448.690394,59.0089286 C449.688542,59.6875 451.595718,59.5446429 451.595718,58.3392857 Z M454.750579,59.1696429 L454.554514,58.5625 C454.215856,58.75 453.467245,58.9553571 453.467245,58.1964286 L453.467245,56.7142857 L454.634722,56.7142857 L454.634722,56.0535714 L453.467245,56.0535714 L453.467245,55.0535714 L452.736458,55.0535714 L452.736458,56.0535714 L452.059144,56.0535714 L452.059144,56.7053571 L452.736458,56.7053571 L452.736458,58.1964286 C452.736458,59.7678571 454.278241,59.4821429 454.750579,59.1696429 Z M455.93588,57.9732143 L458.38669,57.9732143 C458.38669,56.5267857 457.727199,55.9553571 456.835995,55.9553571 C455.891319,55.9553571 455.214005,56.6607143 455.214005,57.6785714 C455.214005,59.5089286 457.228125,59.8125 458.226273,58.9464286 L457.887616,58.4107143 C457.192477,58.9821429 456.140856,58.9285714 455.93588,57.9732143 Z M461.202894,56.0535714 C460.79294,55.875 460.169097,55.8928571 459.848264,56.4464286 L459.848264,56.0535714 L459.117477,56.0535714 L459.117477,59.3303571 L459.848264,59.3303571 L459.848264,57.4821429 C459.848264,56.4464286 460.694907,56.5803571 460.989005,56.7321429 L461.202894,56.0535714 Z M462.147569,57.6875 C462.147569,56.6696429 463.181366,56.3392857 463.992361,56.9375 L464.331019,56.3571429 C463.297222,55.5446429 461.416782,55.9910714 461.416782,57.6964286 C461.416782,59.4642857 463.413079,59.8214286 464.331019,59.0357143 L463.992361,58.4553571 C463.172454,59.0357143 462.147569,58.6875 462.147569,57.6875 Z M468.091898,56.0535714 L467.361111,56.0535714 L467.361111,56.4464286 C466.621412,55.4642857 464.696412,56.0178571 464.696412,57.6875 C464.696412,59.4017857 466.692708,59.8928571 467.361111,58.9285714 L467.361111,59.3392857 L468.091898,59.3392857 L468.091898,56.0535714 Z M471.095255,56.0535714 C470.881366,55.9464286 470.114931,55.7946429 469.740625,56.4464286 L469.740625,56.0535714 L469.036574,56.0535714 L469.036574,59.3303571 L469.740625,59.3303571 L469.740625,57.4821429 C469.740625,56.5 470.542708,56.5625 470.881366,56.7321429 L471.095255,56.0535714 Z M474.686806,54.7232143 L473.982755,54.7232143 L473.982755,56.4464286 C473.251968,55.4732143 471.318056,55.9910714 471.318056,57.6875 C471.318056,59.4196429 473.323264,59.8839286 473.982755,58.9285714 L473.982755,59.3392857 L474.686806,59.3392857 L474.686806,54.7232143 Z M475.36412,48.0178571 L475.36412,48.4285714 L475.435417,48.4285714 L475.435417,48.0178571 L475.604745,48.0178571 L475.604745,47.9464286 L475.194792,47.9464286 L475.194792,48.0178571 L475.36412,48.0178571 Z M475.952315,59.0714286 C475.952315,59.0267857 475.952315,58.9732143 475.925579,58.9285714 C475.898843,58.9017857 475.881019,58.8571429 475.854282,58.8303571 C475.827546,58.8035714 475.782986,58.7857143 475.75625,58.7589286 C475.71169,58.7589286 475.658218,58.7321429 475.613657,58.7321429 C475.586921,58.7321429 475.542361,58.7589286 475.488889,58.7589286 C475.444329,58.7857143 475.417593,58.8035714 475.390856,58.8303571 C475.346296,58.8571429 475.31956,58.9017857 475.31956,58.9285714 C475.292824,58.9732143 475.292824,59.0267857 475.292824,59.0714286 C475.292824,59.0982143 475.292824,59.1428571 475.31956,59.1964286 C475.31956,59.2232143 475.346296,59.2678571 475.390856,59.2946429 C475.417593,59.3214286 475.435417,59.3392857 475.488889,59.3660714 C475.533449,59.3928571 475.586921,59.3928571 475.613657,59.3928571 C475.658218,59.3928571 475.71169,59.3928571 475.75625,59.3660714 C475.782986,59.3392857 475.827546,59.3214286 475.854282,59.2946429 C475.881019,59.2678571 475.898843,59.2232143 475.925579,59.1964286 C475.952315,59.1428571 475.952315,59.0982143 475.952315,59.0714286 Z M476.2375,47.9375 L476.112731,47.9375 L475.970139,48.25 L475.827546,47.9375 L475.702778,47.9375 L475.702778,48.4196429 L475.774074,48.4196429 L475.774074,48.0535714 L475.916667,48.3660714 L476.014699,48.3660714 L476.139468,48.0535714 L476.139468,48.4196429 L476.2375,48.4196429 L476.2375,47.9375 Z M476.62963,40.75 C476.62963,33.9464286 471.095255,28.4017857 464.286458,28.4017857 C461.862384,28.4017857 459.48287,29.1339286 457.46875,30.4642857 C463.894329,35.7589286 463.992361,45.7767857 457.46875,51.0446429 C459.48287,52.3839286 461.880208,53.1071429 464.286458,53.1071429 C471.095255,53.1160714 476.62963,47.5803571 476.62963,40.75 Z" id="Shape"></path>
                </g>
            </g>
        </g>
    </g>
</svg>