<?xml version="1.0" encoding="UTF-8"?>
<svg width="52px" height="40px" viewBox="0 0 52 40" version="1.1" xmlns="http://www.w3.org/2000/svg" xmlns:xlink="http://www.w3.org/1999/xlink">
    <!-- Generator: Sketch 52 (66869) - http://www.bohemiancoding.com/sketch -->
    <title>Shape</title>
    <desc>Created with Sketch.</desc>
    <g id="Page-1" stroke="none" stroke-width="1" fill="none" fill-rule="evenodd">
        <g id="Apple-TV-Copy" transform="translate(-365.000000, -2748.000000)" fill="#EAEAEA" fill-rule="nonzero">
            <g id="Group" transform="translate(-19.000000, 2581.000000)">
                <g id="footer-copy" transform="translate(19.000000, 143.000000)">
                    <g id="cc-visa" transform="translate(365.000000, 24.000000)">
                        <path d="M42.4395833,17.7946429 C42.4395833,17.7946429 43.1256944,21.1160714 43.2791667,21.8125 L40.2638889,21.8125 C40.5618056,21.0178571 41.7083333,17.9285714 41.7083333,17.9285714 C41.6902778,17.9553571 42.00625,17.1160714 42.1868056,16.5982143 L42.4395833,17.7946429 Z M52,4.28571429 L52,35.7142857 C52,38.0803571 50.0590278,40 47.6666667,40 L4.33333333,40 C1.94097222,40 0,38.0803571 0,35.7142857 L0,4.28571429 C0,1.91964286 1.94097222,0 4.33333333,0 L47.6666667,0 C50.0590278,0 52,1.91964286 52,4.28571429 Z M13.7673611,26.7142857 L19.4729167,12.8571429 L15.6361111,12.8571429 L12.0881944,22.3214286 L11.7,20.4017857 L10.4361111,14.0267857 C10.2284722,13.1428571 9.5875,12.8928571 8.79305556,12.8571429 L2.95208333,12.8571429 L2.88888889,13.1339286 C4.31527778,13.4910714 5.58819444,14.0089286 6.69861111,14.6607143 L9.93055556,26.7142857 L13.7673611,26.7142857 Z M22.2895833,26.7321429 L24.5645833,12.8571429 L20.9354167,12.8571429 L18.6694444,26.7321429 L22.2895833,26.7321429 Z M34.9194444,22.1964286 C34.9375,20.6160714 33.9625,19.4107143 31.8770833,18.4196429 C30.6041667,17.7857143 29.8277778,17.3571429 29.8277778,16.7053571 C29.8458333,16.1160714 30.4868056,15.5089286 31.9131944,15.5089286 C33.0958333,15.4821429 33.9625,15.7589286 34.6125,16.0357143 L34.9375,16.1875 L35.4340278,13.1875 C34.7208333,12.9107143 33.5833333,12.5982143 32.1840278,12.5982143 C28.6,12.5982143 26.08125,14.4910714 26.0631944,17.1875 C26.0361111,19.1785714 27.86875,20.2857143 29.2409722,20.9553571 C30.6402778,21.6339286 31.11875,22.0803571 31.11875,22.6785714 C31.1006944,23.6071429 29.98125,24.0357143 28.9430556,24.0357143 C27.4986111,24.0357143 26.7222222,23.8125 25.5395833,23.2946429 L25.0611111,23.0714286 L24.5555556,26.1875 C25.4041667,26.5714286 26.975,26.9107143 28.6,26.9285714 C32.4097222,26.9375 34.8923611,25.0714286 34.9194444,22.1964286 Z M47.6666667,26.7321429 L44.7416667,12.8571429 L41.9340278,12.8571429 C41.0673611,12.8571429 40.4083333,13.1071429 40.0381944,14.0089286 L34.6486111,26.7321429 L38.4583333,26.7321429 C38.4583333,26.7321429 39.08125,25.0178571 39.2166667,24.6517857 L43.875,24.6517857 C43.9833333,25.1428571 44.3083333,26.7321429 44.3083333,26.7321429 L47.6666667,26.7321429 Z" id="Shape"></path>
                    </g>
                </g>
            </g>
        </g>
    </g>
</svg>